#N canvas 665 231 661 529 10;
#X obj 290 506 dac~;
#X obj 235 252 osc~ 1;
#X msg 72 150 \; pd dsp 1;
#X obj 61 68 loadbang;
#X obj 37 192 print Running;
#X obj 60 106 delay 100;
#X obj 229 68 netreceive 3000;
#X obj 232 120 unpack 0 0 0 0;
#X floatatom 181 147 5 0 0 0 - - -;
#X floatatom 239 149 5 0 0 0 - - -;
#X floatatom 293 148 5 0 0 0 - - -;
#X floatatom 337 148 5 0 0 0 - - -;
#X obj 183 242 mtof;
#X floatatom 183 264 5 0 0 0 - - -;
#X obj 289 247 osc~ 1;
#X obj 343 249 mtof;
#X floatatom 342 275 5 0 0 0 - - -;
#X obj 248 389 *~;
#X obj 288 455 lop~ 20000;
#X obj 236 218 * 0.1;
#X obj 213 298 *~;
#X obj 235 182 max 1;
#X obj 289 179 max 1;
#X obj 203 333 phasor~ 440;
#X msg 423 331 0;
#X obj 281 424 *~;
#X msg 481 328 1;
#X obj 179 214 + 48;
#X obj 339 216 + 60;
#X obj 292 213 * 4;
#X floatatom 424 377 5 0 0 0 - - -;
#X text 422 311 off;
#X text 478 310 on;
#X text 13 3 python_receive \, Zachary del Rosario 12/16/2013;
#X text 2 44 some initialization \, start DSP;
#X text 226 46 receive messages through the OS;
#X text 248 89 we expect messages be formatted as a string of the form
'a b c d \; ' \, where a \, b \, c \, d are integers;
#X text 12 316 simple synthesizer \, data input from python controls
various parameters \, which make the sound more interesting;
#X text 16 393 each number in the string controls a different parameter:
a) fundamental frequency b) frequency modulation rate c) heterodyning
frequency d) low pass filter cutoff frequency;
#X connect 1 0 20 1;
#X connect 3 0 5 0;
#X connect 5 0 2 0;
#X connect 5 0 4 0;
#X connect 6 0 7 0;
#X connect 7 0 8 0;
#X connect 7 1 9 0;
#X connect 7 2 10 0;
#X connect 7 3 11 0;
#X connect 8 0 27 0;
#X connect 9 0 21 0;
#X connect 10 0 22 0;
#X connect 11 0 28 0;
#X connect 12 0 13 0;
#X connect 13 0 20 0;
#X connect 14 0 17 1;
#X connect 15 0 16 0;
#X connect 16 0 18 1;
#X connect 17 0 25 0;
#X connect 18 0 0 0;
#X connect 18 0 0 1;
#X connect 19 0 1 0;
#X connect 20 0 23 0;
#X connect 21 0 19 0;
#X connect 22 0 29 0;
#X connect 23 0 17 0;
#X connect 24 0 30 0;
#X connect 25 0 18 0;
#X connect 26 0 30 0;
#X connect 27 0 12 0;
#X connect 28 0 15 0;
#X connect 29 0 14 0;
#X connect 30 0 25 1;
